<?xml version="1.0" encoding="utf-8"?>
<!-- Generator: Adobe Illustrator 17.0.0, SVG Export Plug-In . SVG Version: 6.00 Build 0)  -->
<!DOCTYPE svg PUBLIC "-//W3C//DTD SVG 1.1//EN" "http://www.w3.org/Graphics/SVG/1.1/DTD/svg11.dtd">
<svg version="1.1" id="Layer_1" xmlns="http://www.w3.org/2000/svg" xmlns:xlink="http://www.w3.org/1999/xlink" x="0px" y="0px"
	 width="2000px" height="1302.104px" viewBox="0 0 2000 1302.104" enable-background="new 0 0 2000 1302.104" xml:space="preserve">
<rect x="-53" y="-33.01" opacity="0.51" fill="#FFF200" width="2106" height="1368.125"/>
<g>
	<g>
		<path fill="#021B23" d="M488.358,823.682v-87.466h18.135c13.081,0,22.574,1.051,28.481,3.151
			c8.482,2.973,15.112,8.126,19.889,15.46c4.776,7.334,7.165,16.074,7.165,26.222c0,8.761-1.894,16.47-5.679,23.13
			c-3.786,6.66-8.702,11.575-14.746,14.746c-6.045,3.172-14.518,4.757-25.419,4.757H488.358z M496.742,815.417h10.108
			c12.09,0,20.474-0.752,25.152-2.257c6.58-2.139,11.752-5.99,15.519-11.555c3.766-5.565,5.648-12.368,5.648-20.408
			c0-8.436-2.042-15.644-6.124-21.625c-4.083-5.98-9.772-10.08-17.065-12.298c-5.47-1.663-14.488-2.495-27.054-2.495h-6.184V815.417
			z"/>
		<path fill="#021B23" d="M632.804,734.017c13.248,0,24.334,4.42,33.259,13.259c8.925,8.84,13.388,19.721,13.388,32.644
			c0,12.805-4.453,23.665-13.358,32.584c-8.905,8.919-19.763,13.379-32.575,13.379c-12.971,0-23.919-4.439-32.843-13.319
			c-8.925-8.879-13.387-19.622-13.387-32.227c0-8.403,2.033-16.193,6.099-23.368c4.065-7.174,9.608-12.793,16.629-16.857
			C617.036,736.049,624.632,734.017,632.804,734.017z M633.191,742.519c-6.472,0-12.606,1.687-18.403,5.059
			c-5.797,3.372-10.324,7.915-13.579,13.626c-3.256,5.713-4.883,12.08-4.883,19.102c0,10.394,3.603,19.172,10.809,26.333
			c7.206,7.161,15.892,10.741,26.057,10.741c6.789,0,13.072-1.646,18.849-4.939s10.283-7.795,13.519-13.508
			c3.236-5.712,4.854-12.06,4.854-19.043c0-6.942-1.619-13.22-4.854-18.834c-3.236-5.613-7.792-10.105-13.667-13.478
			C646.015,744.206,639.782,742.519,633.191,742.519z"/>
		<path fill="#021B23" d="M702.51,736.217h9.514l28.988,67.575l29.461-67.575h9.514l-38.055,87.466h-1.903L702.51,736.217z"/>
		<path fill="#021B23" d="M806.909,736.217h50.125v8.563H815.65v27.411h41.027v8.562H815.65v34.368h41.027v8.562h-49.768V736.217z"
			/>
		<path fill="#021B23" d="M884.79,736.217h17.422c9.711,0,16.292,0.398,19.741,1.191c5.192,1.191,9.414,3.741,12.665,7.65
			c3.25,3.91,4.875,8.722,4.875,14.438c0,4.763-1.121,8.951-3.359,12.562c-2.24,3.612-5.441,6.341-9.603,8.186
			c-4.162,1.846-9.91,2.789-17.243,2.828l31.454,40.611h-10.813l-31.456-40.611h-4.941v40.611h-8.741V736.217z M893.531,744.779
			v29.73l15.067,0.12c5.836,0,10.154-0.555,12.953-1.665c2.799-1.109,4.983-2.884,6.552-5.322c1.568-2.438,2.352-5.163,2.352-8.177
			c0-2.933-0.794-5.599-2.382-7.998c-1.589-2.398-3.673-4.112-6.253-5.143c-2.581-1.03-6.87-1.546-12.864-1.546H893.531z"/>
		<path fill="#021B23" d="M1007.254,807.39l7.433-4.459c5.232,9.632,11.276,14.449,18.135,14.449c2.934,0,5.688-0.684,8.266-2.051
			c2.576-1.368,4.538-3.201,5.887-5.5c1.347-2.299,2.021-4.736,2.021-7.314c0-2.933-0.991-5.807-2.974-8.622
			c-2.734-3.884-7.729-8.562-14.983-14.033c-7.294-5.509-11.833-9.493-13.616-11.951c-3.092-4.123-4.639-8.582-4.639-13.378
			c0-3.806,0.912-7.274,2.735-10.406c1.823-3.131,4.39-5.599,7.7-7.403c3.31-1.803,6.907-2.705,10.792-2.705
			c4.122,0,7.978,1.021,11.565,3.062c3.587,2.042,7.382,5.797,11.387,11.268l-7.136,5.411c-3.291-4.36-6.095-7.234-8.413-8.622
			c-2.319-1.387-4.847-2.081-7.582-2.081c-3.528,0-6.412,1.07-8.651,3.211s-3.359,4.777-3.359,7.908c0,1.903,0.396,3.746,1.189,5.53
			s2.239,3.727,4.341,5.827c1.149,1.11,4.914,4.024,11.297,8.741c7.571,5.589,12.764,10.564,15.579,14.924
			c2.813,4.361,4.222,8.741,4.222,13.141c0,6.343-2.408,11.853-7.225,16.53c-4.816,4.678-10.673,7.017-17.57,7.017
			c-5.313,0-10.129-1.418-14.449-4.251C1014.884,818.797,1010.9,814.05,1007.254,807.39z"/>
		<path fill="#021B23" d="M1089.416,736.217h8.741v52.801c0,6.264,0.118,10.167,0.356,11.713c0.436,3.449,1.446,6.333,3.032,8.651
			c1.585,2.319,4.023,4.262,7.313,5.827c3.29,1.566,6.601,2.349,9.93,2.349c2.894,0,5.669-0.614,8.325-1.843
			c2.655-1.228,4.875-2.933,6.659-5.113c1.784-2.18,3.092-4.816,3.925-7.908c0.594-2.22,0.892-6.779,0.892-13.676v-52.801h8.74
			v52.801c0,7.81-0.764,14.122-2.289,18.938c-1.526,4.816-4.578,9.008-9.157,12.576c-4.578,3.567-10.118,5.352-16.618,5.352
			c-7.057,0-13.103-1.686-18.136-5.054c-5.034-3.369-8.404-7.828-10.108-13.378c-1.07-3.409-1.605-9.553-1.605-18.433V736.217z"/>
		<path fill="#021B23" d="M1177.048,823.682l12.523-87.466h1.42l35.558,71.769l35.215-71.769h1.401l12.587,87.466h-8.571
			l-8.643-62.552l-30.926,62.552h-2.234l-31.294-63.028l-8.593,63.028H1177.048z"/>
		<path fill="#021B23" d="M1301.129,823.682l12.523-87.466h1.42l35.558,71.769l35.215-71.769h1.401l12.587,87.466h-8.571
			l-8.643-62.552l-30.926,62.552h-2.234l-31.294-63.028l-8.593,63.028H1301.129z"/>
		<path fill="#021B23" d="M1427.945,736.217h8.741v87.466h-8.741V736.217z"/>
		<path fill="#021B23" d="M1460.221,744.779v-8.563h47.925v8.563h-19.503v78.903h-8.919v-78.903H1460.221z"/>
	</g>
	<g>
		<g>
			<g>
				<path fill="#021B23" d="M807.995,580.387l-22.261-9.326l-1.461,18.574l-13.412-16.54l-7.547,20.126l-5.358-18.368
					l-30.811,15.703c-0.65,1.929-1.711,3.527-3.187,4.415l1.79,3.513l28.212-14.378l8.592,29.457l10.387-27.699l16.48,20.325
					l2.026-25.764l19.714,8.259l1.012-2.416C810.096,585.297,808.704,583.049,807.995,580.387z"/>
			</g>
			<g>
				<path fill="#021B23" d="M1274.999,591.648l-32.956-16.796l-5.356,18.368l-7.548-20.126l-13.411,16.54l-1.461-18.574
					l-22.949,9.615c-0.579,2.434-1.742,4.509-3.493,5.58l1.016,2.427l19.713-8.259l2.029,25.764l16.477-20.325l10.389,27.699
					l8.592-29.457l28.211,14.378l1.42-2.786C1275.282,594.425,1275.06,593.044,1274.999,591.648z"/>
			</g>
		</g>
		<polygon fill="#021B23" points="1227.542,553.695 1367.703,689.521 1376.94,689.521 1227.646,544.845 1165.839,601.993 
			1170.694,606.259 		"/>
		<polygon fill="#021B23" points="632.298,689.521 772.458,553.695 830.796,607.636 834.975,602.745 772.354,544.845 
			623.061,689.521 		"/>
		<g>
			<polygon fill="#021B23" points="747.54,689.521 1000,449.941 1252.46,689.521 1261.799,689.521 1002.213,443.179 1000,441.081 
				738.201,689.521 			"/>
		</g>
		<g>
			<path fill="#021B23" d="M870.166,469.457l-3.56-8.728l-3.032,1.237l3.56,8.728C868.133,470.255,869.144,469.843,870.166,469.457z
				"/>
			<path fill="#021B23" d="M917.744,470.943l3.643-8.664l-3.019-1.27l-3.644,8.664c0.509,0.198,1.02,0.384,1.526,0.596
				C916.757,470.482,917.247,470.718,917.744,470.943z"/>
			<path fill="#021B23" d="M834.764,503.508c0.213-0.506,0.449-0.996,0.673-1.493l-8.664-3.644l-1.27,3.019l8.664,3.644
				C834.366,504.525,834.551,504.014,834.764,503.508z"/>
			<path fill="#021B23" d="M825.224,553.154l1.237,3.032l8.728-3.56c-0.439-1-0.851-2.011-1.237-3.032L825.224,553.154z"/>
			<path fill="#021B23" d="M914.346,474.798c-29.179-12.271-62.782,1.435-75.053,30.614c-9.436,22.437-3.499,47.479,13.009,63.438
				l83.074-78.835C929.801,483.596,922.713,478.317,914.346,474.798z"/>
		</g>
		<g>
			<path fill="#021B23" d="M1018.101,477.992l-2.128,27.051l-19.126-23.589l-10.976,29.272l-8.024-27.514l-41.437,21.119
				c-0.798,1.628-1.657,3.19-2.591,4.644c-0.421,0.656-0.878,1.31-1.351,1.962l1.059,2.078l40.323-20.551l11.259,38.603
				l13.817-36.845l22.196,27.374l2.693-34.242l28.82,12.074l2.483-5.929L1018.101,477.992z"/>
		</g>
	</g>
</g>
</svg>
